<svg xmlns="http://www.w3.org/2000/svg" viewBox="0 0 64 64" aria-hidden="true">
  <g fill="none" stroke="#f97316" stroke-width="3" stroke-linecap="round" stroke-linejoin="round">
    <!-- Simple elephant mark (Postgres-ish), drawn in-house -->
    <path d="M18 40c0 8 7 14 16 14s16-6 16-14c0-10-8-18-18-18-9 0-14 6-14 12z" />
    <path d="M44 36c4 0 8 3 8 8 0 6-5 10-11 9" />
    <path d="M48 44c0 6-3 10-8 10" />
    <path d="M24 54v-8" />
    <path d="M38 54v-8" />
    <path d="M18 42c-4 0-6-3-6-7 0-5 3-8 7-8" />
    <path d="M20 27c3-5 8-8 14-8" />
    <path d="M30 30c0 1.5-1 2.5-2.5 2.5S25 31.5 25 30s1-2.5 2.5-2.5S30 28.5 30 30z" />
  </g>
</svg>
